<?xml version="1.0" encoding="utf-8"?>
<!-- Generator: Adobe Illustrator 16.0.0, SVG Export Plug-In . SVG Version: 6.00 Build 0)  -->
<!DOCTYPE svg PUBLIC "-//W3C//DTD SVG 1.1//EN" "http://www.w3.org/Graphics/SVG/1.1/DTD/svg11.dtd">
<svg version="1.1" id="Layer_1" xmlns="http://www.w3.org/2000/svg" xmlns:xlink="http://www.w3.org/1999/xlink" x="0px" y="0px"
	 width="341px" height="116px" viewBox="0 0 341 116" enable-background="new 0 0 341 116" xml:space="preserve">
<circle fill-rule="evenodd" clip-rule="evenodd" fill="#C5CAE9" cx="67.84" cy="63.407" r="33.485"/>
<path fill-rule="evenodd" clip-rule="evenodd" fill="#181D36" d="M33.914,59.342c0.553,0.025,0.959,0.06,1.367,0.06
	c6.749,0.003,13.495-0.013,20.246,0.021c0.917,0.005,1.376-0.28,1.79-1.127c2.34-4.786,7.397-7.17,12.521-5.993
	c4.98,1.146,8.576,5.729,8.589,10.953c0.013,4.963-3.674,9.574-8.586,10.738c-4.955,1.172-10.13-1.15-12.334-5.675
	c-0.55-1.132-1.186-1.467-2.401-1.454c-6.522,0.061-13.047,0.029-19.569,0.029c-0.486,0-0.969,0-1.622,0c0,0.517,0,0.915,0,1.316
	c0,3.771,0.026,7.54-0.008,11.311c-0.046,5.025-3.396,8.905-8.373,9.475c-3.289,0.375-6.066-0.863-8.14-3.48
	c-0.433-0.545-0.77-0.711-1.493-0.519C9.038,86.82,4.112,81.213,4.219,75.843c0.172-8.659-0.007-17.323,0.049-25.984
	c0.04-5.957,5.896-10.229,11.64-8.573c0.563,0.164,0.922,0.207,1.348-0.324c2.734-3.386,6.659-4.566,10.469-3.212
	c3.726,1.327,6.157,4.88,6.184,9.112c0.024,3.692,0.007,7.389,0.007,11.084C33.914,58.354,33.914,58.764,33.914,59.342z
	 M22.755,63.1c0,5.505-0.008,11.009,0.006,16.512c0.001,1.327,0.795,2.15,1.957,2.114c1.023-0.031,1.745-0.867,1.745-2.091
	c0.008-11.004,0.011-22.006-0.009-33.006c0-0.431-0.111-0.921-0.343-1.27c-0.451-0.687-1.15-0.969-1.973-0.706
	c-0.93,0.294-1.396,0.916-1.393,1.935C22.764,52.094,22.755,57.595,22.755,63.1z M15.375,63.147c0-4.177,0.004-8.356-0.001-12.532
	c-0.002-1.354-0.723-2.253-1.798-2.291c-1.185-0.042-1.979,0.818-1.98,2.215c-0.007,8.396-0.007,16.791,0,25.188
	c0.002,1.481,0.715,2.298,1.91,2.266c1.22-0.037,1.865-0.821,1.866-2.312C15.379,71.504,15.375,67.326,15.375,63.147z
	 M67.324,59.391c-2.039-0.028-3.779,1.652-3.791,3.659c-0.009,2.09,1.711,3.853,3.751,3.85c2.001-0.005,3.737-1.745,3.741-3.746
	C71.025,61.104,69.369,59.415,67.324,59.391z"/>
<path fill-rule="evenodd" clip-rule="evenodd" fill="#181D36" d="M70.923,18.722c0,2.403,0,4.765,0,7.209c-2.386,0-4.772,0-7.251,0
	c0-2.368,0-4.75,0-7.209C66.085,18.722,68.475,18.722,70.923,18.722z"/>
<path fill-rule="evenodd" clip-rule="evenodd" fill="#181D36" d="M63.643,107.576c0-2.428,0-4.779,0-7.214c2.415,0,4.804,0,7.266,0
	c0,2.378,0,4.761,0,7.214C68.471,107.576,66.085,107.576,63.643,107.576z"/>
<path fill-rule="evenodd" clip-rule="evenodd" fill="#181D36" d="M89.279,93.631c1.23,2.139,2.42,4.211,3.667,6.38
	c-2.144,1.227-4.211,2.407-6.356,3.634c-1.24-2.136-2.424-4.169-3.667-6.31C85.06,96.089,87.123,94.886,89.279,93.631z"/>
<path fill-rule="evenodd" clip-rule="evenodd" fill="#181D36" d="M42.104,100.006c1.265-2.193,2.442-4.236,3.676-6.374
	c2.125,1.237,4.184,2.437,6.347,3.699c-1.237,2.134-2.431,4.191-3.666,6.318C46.318,102.423,44.245,101.233,42.104,100.006z"/>
<path fill-rule="evenodd" clip-rule="evenodd" fill="#181D36" d="M92.957,26.786c-1.249,2.167-2.431,4.214-3.673,6.375
	c-2.131-1.231-4.196-2.425-6.366-3.677c1.229-2.119,2.413-4.157,3.667-6.314C88.711,24.379,90.789,25.559,92.957,26.786z"/>
<path fill-rule="evenodd" clip-rule="evenodd" fill="#181D36" d="M107.789,44.355c-2.161,1.235-4.231,2.422-6.352,3.637
	c-1.228-2.111-2.417-4.153-3.673-6.314c2.108-1.23,4.204-2.449,6.358-3.705C105.354,40.118,106.543,42.189,107.789,44.355z"/>
<path fill-rule="evenodd" clip-rule="evenodd" fill="#181D36" d="M48.463,23.163c1.243,2.14,2.425,4.175,3.664,6.313
	c-2.139,1.246-4.198,2.443-6.341,3.689c-1.241-2.142-2.439-4.21-3.686-6.363C44.238,25.578,46.313,24.393,48.463,23.163z"/>
<path fill-rule="evenodd" clip-rule="evenodd" fill="#181D36" d="M104.126,88.822c-2.129-1.23-4.168-2.409-6.355-3.675
	c1.219-2.108,2.403-4.171,3.651-6.332c2.126,1.213,4.197,2.395,6.367,3.632C106.554,84.598,105.366,86.665,104.126,88.822z"/>
<path fill-rule="evenodd" clip-rule="evenodd" fill="#181D36" d="M104.5,66.748c0-2.438,0-4.786,0-7.217c2.415,0,4.763,0,7.183,0
	c0,2.411,0,4.763,0,7.217C109.313,66.748,106.971,66.748,104.5,66.748z"/>
<rect x="33.563" y="44.627" fill-rule="evenodd" clip-rule="evenodd" fill="#C5CAE9" width="17.083" height="36.991"/>
<rect x="32.544" y="59.41" fill-rule="evenodd" clip-rule="evenodd" fill="#181D36" width="23.984" height="7.504"/>
<path fill="#181D36" stroke="#181D36" stroke-miterlimit="10" d="M141.209,65.242c-0.466-0.465-0.698-1.038-0.698-1.718V32.758
	h-10.953c-0.645,0-1.182-0.215-1.61-0.645c-0.43-0.43-0.645-0.967-0.645-1.61c0-0.645,0.215-1.19,0.645-1.638
	c0.429-0.447,0.966-0.672,1.61-0.672h26.739c0.645,0,1.189,0.225,1.638,0.672c0.447,0.447,0.671,0.993,0.671,1.638
	c0,0.644-0.224,1.181-0.671,1.61c-0.448,0.43-0.993,0.645-1.638,0.645h-10.899v30.767c0,0.68-0.242,1.253-0.726,1.718
	c-0.482,0.465-1.065,0.698-1.744,0.698C142.247,65.94,141.674,65.707,141.209,65.242z"/>
<path fill="#181D36" stroke="#181D36" stroke-miterlimit="10" d="M166.82,31.898c-0.536-0.537-0.805-1.181-0.805-1.933v-0.215
	c0-0.752,0.269-1.396,0.805-1.933c0.537-0.537,1.182-0.806,1.934-0.806h0.322c0.751,0,1.396,0.269,1.933,0.806
	c0.537,0.536,0.806,1.181,0.806,1.933v0.215c0,0.752-0.269,1.396-0.806,1.933s-1.182,0.806-1.933,0.806h-0.322
	C168.002,32.704,167.357,32.436,166.82,31.898z M167.143,65.242c-0.465-0.465-0.697-1.038-0.697-1.718V40.489
	c0-0.679,0.232-1.262,0.697-1.745c0.465-0.482,1.038-0.725,1.719-0.725c0.716,0,1.306,0.233,1.771,0.698
	c0.465,0.466,0.698,1.057,0.698,1.771v23.035c0,0.68-0.241,1.253-0.725,1.718s-1.065,0.698-1.745,0.698
	C168.181,65.94,167.607,65.707,167.143,65.242z"/>
<path fill="#181D36" stroke="#181D36" stroke-miterlimit="10" d="M183.948,65.242c-0.465-0.465-0.697-1.038-0.697-1.718V40.489
	c0-0.679,0.232-1.262,0.697-1.745c0.465-0.482,1.038-0.725,1.719-0.725c0.68,0,1.262,0.242,1.745,0.725
	c0.483,0.483,0.725,1.066,0.725,1.745v2.202c1.002-1.432,2.21-2.613,3.624-3.544s3.249-1.396,5.504-1.396
	c2.004,0,3.723,0.537,5.154,1.611c1.432,1.073,2.451,2.381,3.061,3.919c2.22-3.686,5.512-5.53,9.88-5.53
	c2.004,0,3.678,0.502,5.021,1.504c1.342,1.002,2.335,2.291,2.979,3.866s0.967,3.221,0.967,4.939v15.464
	c0,0.68-0.241,1.253-0.725,1.718s-1.065,0.698-1.745,0.698c-0.681,0-1.254-0.233-1.719-0.698s-0.697-1.038-0.697-1.718V49.027
	c0-2.327-0.412-4.036-1.235-5.128c-0.824-1.092-2.237-1.638-4.242-1.638c-1.825,0-3.338,0.475-4.537,1.423s-2.264,2.192-3.194,3.731
	v16.108c0,0.68-0.241,1.253-0.725,1.718s-1.065,0.698-1.745,0.698c-0.681,0-1.254-0.233-1.719-0.698s-0.697-1.038-0.697-1.718
	V49.027c0-2.327-0.412-4.036-1.235-5.128c-0.824-1.092-2.237-1.638-4.242-1.638c-1.825,0-3.338,0.475-4.537,1.423
	s-2.264,2.192-3.194,3.731v16.108c0,0.68-0.241,1.253-0.725,1.718s-1.065,0.698-1.745,0.698
	C184.986,65.94,184.413,65.707,183.948,65.242z"/>
<path fill="#181D36" stroke="#181D36" stroke-miterlimit="10" d="M237.991,62.478c-2.452-2.488-3.678-5.987-3.678-10.497
	c0-2.542,0.465-4.887,1.396-7.034c0.93-2.147,2.362-3.884,4.295-5.208c1.934-1.324,4.313-1.987,7.142-1.987
	c2.648,0,4.939,0.618,6.873,1.853c1.933,1.235,3.4,2.882,4.402,4.94s1.504,4.305,1.504,6.738c0,0.681-0.225,1.253-0.672,1.718
	c-0.447,0.466-1.047,0.698-1.799,0.698h-18.202c0.286,2.506,1.217,4.457,2.793,5.853c1.574,1.396,3.775,2.094,6.604,2.094
	c1.504,0,2.819-0.143,3.947-0.43c1.127-0.285,2.228-0.697,3.302-1.234c0.286-0.143,0.608-0.215,0.967-0.215
	c0.572,0,1.073,0.197,1.503,0.591c0.43,0.395,0.645,0.895,0.645,1.503c0,0.788-0.466,1.45-1.396,1.987
	c-1.396,0.787-2.774,1.378-4.134,1.771c-1.361,0.394-3.114,0.591-5.262,0.591C243.853,66.209,240.443,64.966,237.991,62.478z
	 M255.093,49.725c-0.107-1.753-0.563-3.222-1.369-4.402c-0.806-1.182-1.799-2.049-2.979-2.604c-1.182-0.555-2.381-0.832-3.598-0.832
	c-1.218,0-2.416,0.277-3.598,0.832c-1.182,0.556-2.166,1.423-2.953,2.604c-0.788,1.181-1.235,2.649-1.343,4.402H255.093z"/>
<path fill="#3F51B5" stroke="#3F51B5" stroke-miterlimit="10" d="M131.337,96.493c-0.98-0.525-1.698-1.207-2.152-2.045
	s-0.682-1.729-0.682-2.674c0-1.212,0.316-2.25,0.949-3.115c0.632-0.864,1.323-1.537,2.072-2.019
	c-0.535-0.642-0.94-1.257-1.217-1.845s-0.414-1.266-0.414-2.032c0-0.855,0.2-1.64,0.602-2.353c0.4-0.713,0.979-1.278,1.737-1.697
	s1.645-0.629,2.66-0.629c1.194,0,2.38,0.393,3.557,1.177c0.124,0.071,0.235,0.183,0.334,0.334c0.098,0.151,0.146,0.308,0.146,0.468
	c0,0.25-0.089,0.468-0.267,0.655c-0.179,0.188-0.401,0.28-0.669,0.28c-0.143,0-0.303-0.044-0.481-0.133
	c-0.855-0.464-1.693-0.695-2.513-0.695c-0.892,0-1.591,0.245-2.099,0.735c-0.509,0.49-0.763,1.064-0.763,1.725
	c0,0.517,0.085,0.972,0.254,1.363c0.17,0.393,0.424,0.775,0.763,1.149c0.338,0.374,0.891,0.918,1.657,1.631l5.588,5.268
	c0.25-0.356,0.544-0.9,0.883-1.631c0.089-0.196,0.227-0.356,0.414-0.481s0.396-0.188,0.628-0.188c0.321,0,0.589,0.103,0.803,0.308
	s0.32,0.468,0.32,0.789c0,0.178-0.045,0.356-0.134,0.534c-0.356,0.767-0.784,1.497-1.283,2.192l1.792,1.711
	c0.142,0.125,0.249,0.25,0.32,0.375s0.107,0.285,0.107,0.481c0,0.303-0.099,0.561-0.295,0.774c-0.196,0.215-0.463,0.321-0.802,0.321
	c-0.32,0-0.598-0.106-0.829-0.321l-1.791-1.711c-0.767,0.642-1.613,1.15-2.54,1.524s-1.907,0.562-2.94,0.562
	C133.556,97.282,132.317,97.019,131.337,96.493z M138.957,93.726l-5.963-5.588c-0.605,0.393-1.122,0.9-1.551,1.524
	c-0.428,0.624-0.642,1.354-0.642,2.192c0,0.98,0.388,1.787,1.163,2.42s1.733,0.949,2.874,0.949
	C136.354,95.224,137.727,94.725,138.957,93.726z"/>
<path fill="#3F51B5" stroke="#3F51B5" stroke-miterlimit="10" d="M156.068,96.801c-0.232-0.231-0.348-0.517-0.348-0.855V79.983
	c0-0.481,0.169-0.896,0.508-1.243c0.338-0.348,0.748-0.521,1.229-0.521h0.883c0.356,0,0.682,0.107,0.976,0.321
	s0.513,0.48,0.655,0.802l6.069,15.133l6.069-15.133c0.142-0.321,0.36-0.588,0.654-0.802s0.619-0.321,0.977-0.321h0.882
	c0.481,0,0.892,0.174,1.229,0.521c0.339,0.348,0.509,0.762,0.509,1.243v15.962c0,0.339-0.116,0.624-0.348,0.855
	c-0.232,0.231-0.518,0.348-0.855,0.348c-0.339,0-0.629-0.116-0.869-0.348c-0.241-0.231-0.361-0.517-0.361-0.855V80.759
	l-6.176,15.267c-0.143,0.339-0.37,0.61-0.682,0.815c-0.313,0.205-0.655,0.308-1.029,0.308c-0.375,0-0.718-0.103-1.029-0.308
	c-0.313-0.205-0.54-0.477-0.683-0.815l-6.176-15.267v15.187c0,0.339-0.12,0.624-0.361,0.855c-0.24,0.231-0.53,0.348-0.868,0.348
	C156.585,97.148,156.3,97.032,156.068,96.801z"/>
<path fill="#3F51B5" stroke="#3F51B5" stroke-miterlimit="10" d="M182.363,96.801c-0.669-0.321-1.199-0.789-1.591-1.403
	c-0.393-0.615-0.589-1.324-0.589-2.126c0-1.318,0.521-2.37,1.564-3.155c1.043-0.784,2.571-1.176,4.585-1.176h3.235v-0.214
	c0-1.177-0.29-2.023-0.869-2.54s-1.483-0.775-2.714-0.775c-0.677,0-1.278,0.054-1.805,0.16c-0.525,0.107-1.109,0.268-1.751,0.481
	c-0.143,0.036-0.259,0.054-0.348,0.054c-0.268,0-0.499-0.098-0.695-0.294s-0.294-0.437-0.294-0.723c0-0.48,0.231-0.819,0.695-1.016
	c1.515-0.642,3.057-0.963,4.626-0.963c1.229,0,2.268,0.25,3.114,0.749s1.471,1.146,1.872,1.938c0.4,0.793,0.602,1.653,0.602,2.58
	v7.566c0,0.339-0.121,0.624-0.361,0.855s-0.53,0.348-0.869,0.348s-0.624-0.116-0.855-0.348s-0.348-0.517-0.348-0.855V95.25
	c-1.319,1.354-2.994,2.032-5.026,2.032C183.758,97.282,183.031,97.122,182.363,96.801z M187.724,94.568
	c0.73-0.383,1.346-0.859,1.845-1.431v-2.246h-2.914c-2.691,0-4.037,0.705-4.037,2.112c0,0.642,0.218,1.159,0.655,1.551
	c0.437,0.393,1.163,0.589,2.179,0.589C186.235,95.144,186.992,94.952,187.724,94.568z"/>
<path fill="#3F51B5" stroke="#3F51B5" stroke-miterlimit="10" d="M196.439,96.801c-0.232-0.231-0.348-0.517-0.348-0.855v-11.47
	c0-0.339,0.115-0.629,0.348-0.869c0.231-0.241,0.517-0.361,0.855-0.361c0.338,0,0.628,0.12,0.869,0.361
	c0.24,0.24,0.36,0.53,0.36,0.869v1.096c0.678-0.748,1.408-1.346,2.192-1.791s1.712-0.669,2.781-0.669
	c0.979,0,1.831,0.232,2.553,0.695c0.722,0.464,1.274,1.097,1.658,1.898c0.383,0.802,0.574,1.685,0.574,2.646v7.594
	c0,0.339-0.12,0.624-0.36,0.855c-0.241,0.231-0.531,0.348-0.869,0.348c-0.339,0-0.624-0.116-0.855-0.348
	c-0.232-0.231-0.348-0.517-0.348-0.855v-7.326c0-2.174-0.98-3.262-2.941-3.262c-0.892,0-1.688,0.232-2.393,0.695
	c-0.704,0.464-1.368,1.087-1.992,1.871v8.021c0,0.339-0.12,0.624-0.36,0.855c-0.241,0.231-0.531,0.348-0.869,0.348
	C196.956,97.148,196.671,97.032,196.439,96.801z"/>
<path fill="#3F51B5" stroke="#3F51B5" stroke-miterlimit="10" d="M213.671,96.801c-0.669-0.321-1.199-0.789-1.591-1.403
	c-0.393-0.615-0.589-1.324-0.589-2.126c0-1.318,0.521-2.37,1.564-3.155c1.043-0.784,2.571-1.176,4.585-1.176h3.235v-0.214
	c0-1.177-0.29-2.023-0.869-2.54s-1.483-0.775-2.714-0.775c-0.677,0-1.278,0.054-1.805,0.16c-0.525,0.107-1.109,0.268-1.751,0.481
	c-0.143,0.036-0.259,0.054-0.348,0.054c-0.268,0-0.499-0.098-0.695-0.294s-0.294-0.437-0.294-0.723c0-0.48,0.231-0.819,0.695-1.016
	c1.515-0.642,3.057-0.963,4.626-0.963c1.229,0,2.268,0.25,3.114,0.749s1.471,1.146,1.872,1.938c0.4,0.793,0.602,1.653,0.602,2.58
	v7.566c0,0.339-0.121,0.624-0.361,0.855s-0.53,0.348-0.869,0.348s-0.624-0.116-0.855-0.348s-0.348-0.517-0.348-0.855V95.25
	c-1.319,1.354-2.994,2.032-5.026,2.032C215.065,97.282,214.339,97.122,213.671,96.801z M219.031,94.568
	c0.73-0.383,1.346-0.859,1.845-1.431v-2.246h-2.914c-2.691,0-4.037,0.705-4.037,2.112c0,0.642,0.218,1.159,0.655,1.551
	c0.437,0.393,1.163,0.589,2.179,0.589C217.543,95.144,218.3,94.952,219.031,94.568z"/>
<path fill="#3F51B5" stroke="#3F51B5" stroke-miterlimit="10" d="M230.636,103.03c-1.053-0.268-1.917-0.598-2.594-0.989
	c-0.321-0.196-0.481-0.508-0.481-0.936c0-0.285,0.103-0.539,0.308-0.762c0.205-0.224,0.459-0.335,0.762-0.335
	c0.143,0,0.303,0.036,0.481,0.107c1.354,0.677,2.825,1.016,4.411,1.016c2.728,0,4.091-1.453,4.091-4.357v-1.792
	c-1.266,1.355-2.789,2.032-4.571,2.032c-1.052,0-2.072-0.263-3.062-0.789c-0.989-0.525-1.805-1.31-2.446-2.353
	s-0.963-2.313-0.963-3.81c0-1.498,0.321-2.768,0.963-3.811c0.642-1.042,1.457-1.826,2.446-2.353c0.989-0.525,2.01-0.789,3.062-0.789
	c1.782,0,3.306,0.678,4.571,2.032v-0.668c0-0.339,0.116-0.629,0.348-0.869c0.231-0.241,0.517-0.361,0.855-0.361
	s0.629,0.12,0.869,0.361c0.241,0.24,0.361,0.53,0.361,0.869v11.951c0,2.245-0.544,3.975-1.631,5.187
	c-1.088,1.212-2.639,1.818-4.652,1.818C232.729,103.432,231.687,103.298,230.636,103.03z M235.769,94.261
	c0.642-0.356,1.257-0.838,1.845-1.443V87.31c-0.588-0.606-1.203-1.087-1.845-1.444c-0.642-0.356-1.381-0.534-2.219-0.534
	c-1.337,0-2.429,0.405-3.275,1.216c-0.847,0.812-1.27,1.983-1.27,3.517s0.423,2.705,1.27,3.516c0.847,0.812,1.938,1.217,3.275,1.217
	C234.388,94.796,235.127,94.617,235.769,94.261z"/>
<path fill="#3F51B5" stroke="#3F51B5" stroke-miterlimit="10" d="M245.273,95.424c-1.222-1.238-1.832-2.981-1.832-5.227
	c0-1.266,0.231-2.434,0.695-3.503c0.463-1.069,1.177-1.934,2.139-2.594c0.963-0.659,2.147-0.989,3.557-0.989
	c1.318,0,2.459,0.308,3.422,0.923s1.693,1.435,2.192,2.46c0.499,1.024,0.749,2.144,0.749,3.355c0,0.339-0.112,0.624-0.335,0.855
	s-0.521,0.348-0.896,0.348h-9.063c0.143,1.247,0.605,2.219,1.391,2.914c0.784,0.695,1.88,1.043,3.288,1.043
	c0.749,0,1.403-0.071,1.965-0.214s1.11-0.348,1.645-0.615c0.143-0.071,0.303-0.107,0.481-0.107c0.285,0,0.535,0.099,0.749,0.295
	s0.32,0.445,0.32,0.748c0,0.393-0.231,0.722-0.695,0.989c-0.695,0.393-1.381,0.687-2.059,0.883c-0.678,0.195-1.551,0.294-2.62,0.294
	C248.191,97.282,246.494,96.663,245.273,95.424z M253.789,89.074c-0.054-0.873-0.281-1.604-0.683-2.192
	c-0.4-0.589-0.896-1.021-1.483-1.297s-1.186-0.415-1.791-0.415c-0.606,0-1.203,0.139-1.792,0.415
	c-0.588,0.276-1.078,0.708-1.471,1.297c-0.392,0.588-0.614,1.319-0.668,2.192H253.789z"/>
<path fill="#3F51B5" stroke="#3F51B5" stroke-miterlimit="10" d="M259.751,96.801c-0.232-0.231-0.348-0.517-0.348-0.855v-11.47
	c0-0.339,0.115-0.629,0.348-0.869c0.231-0.241,0.517-0.361,0.855-0.361c0.338,0,0.628,0.12,0.869,0.361
	c0.24,0.24,0.36,0.53,0.36,0.869v1.096c0.499-0.713,1.101-1.301,1.805-1.765c0.704-0.463,1.618-0.695,2.741-0.695
	c0.998,0,1.854,0.268,2.566,0.803c0.713,0.534,1.221,1.186,1.523,1.951c1.105-1.835,2.745-2.754,4.92-2.754
	c0.998,0,1.831,0.25,2.5,0.749c0.668,0.499,1.163,1.141,1.483,1.925c0.321,0.785,0.481,1.604,0.481,2.46v7.7
	c0,0.339-0.12,0.624-0.36,0.855c-0.241,0.231-0.531,0.348-0.869,0.348c-0.339,0-0.624-0.116-0.855-0.348
	c-0.232-0.231-0.348-0.517-0.348-0.855v-7.219c0-1.158-0.205-2.01-0.615-2.554c-0.41-0.543-1.114-0.815-2.112-0.815
	c-0.909,0-1.662,0.236-2.259,0.709c-0.598,0.472-1.128,1.092-1.591,1.857v8.021c0,0.339-0.12,0.624-0.361,0.855
	c-0.24,0.231-0.53,0.348-0.869,0.348s-0.624-0.116-0.855-0.348s-0.348-0.517-0.348-0.855v-7.219c0-1.158-0.205-2.01-0.614-2.554
	c-0.41-0.543-1.114-0.815-2.112-0.815c-0.909,0-1.662,0.236-2.26,0.709c-0.597,0.472-1.127,1.092-1.591,1.857v8.021
	c0,0.339-0.12,0.624-0.36,0.855c-0.241,0.231-0.531,0.348-0.869,0.348C260.268,97.148,259.982,97.032,259.751,96.801z"/>
<path fill="#3F51B5" stroke="#3F51B5" stroke-miterlimit="10" d="M284.95,95.424c-1.222-1.238-1.832-2.981-1.832-5.227
	c0-1.266,0.231-2.434,0.695-3.503c0.463-1.069,1.177-1.934,2.139-2.594c0.963-0.659,2.147-0.989,3.557-0.989
	c1.318,0,2.459,0.308,3.422,0.923s1.693,1.435,2.192,2.46c0.499,1.024,0.749,2.144,0.749,3.355c0,0.339-0.112,0.624-0.335,0.855
	s-0.521,0.348-0.896,0.348h-9.063c0.143,1.247,0.605,2.219,1.391,2.914c0.784,0.695,1.88,1.043,3.288,1.043
	c0.749,0,1.403-0.071,1.965-0.214s1.11-0.348,1.645-0.615c0.143-0.071,0.303-0.107,0.481-0.107c0.285,0,0.535,0.099,0.749,0.295
	s0.32,0.445,0.32,0.748c0,0.393-0.231,0.722-0.695,0.989c-0.695,0.393-1.381,0.687-2.059,0.883c-0.678,0.195-1.551,0.294-2.62,0.294
	C287.868,97.282,286.171,96.663,284.95,95.424z M293.466,89.074c-0.054-0.873-0.281-1.604-0.683-2.192
	c-0.4-0.589-0.896-1.021-1.483-1.297s-1.186-0.415-1.791-0.415c-0.606,0-1.203,0.139-1.792,0.415
	c-0.588,0.276-1.078,0.708-1.471,1.297c-0.392,0.588-0.614,1.319-0.668,2.192H293.466z"/>
<path fill="#3F51B5" stroke="#3F51B5" stroke-miterlimit="10" d="M299.428,96.801c-0.232-0.231-0.348-0.517-0.348-0.855v-11.47
	c0-0.339,0.115-0.629,0.348-0.869c0.231-0.241,0.517-0.361,0.855-0.361c0.338,0,0.628,0.12,0.869,0.361
	c0.24,0.24,0.36,0.53,0.36,0.869v1.096c0.678-0.748,1.408-1.346,2.192-1.791s1.712-0.669,2.781-0.669
	c0.979,0,1.831,0.232,2.553,0.695c0.722,0.464,1.274,1.097,1.658,1.898c0.383,0.802,0.574,1.685,0.574,2.646v7.594
	c0,0.339-0.12,0.624-0.36,0.855c-0.241,0.231-0.531,0.348-0.869,0.348c-0.339,0-0.624-0.116-0.855-0.348
	c-0.232-0.231-0.348-0.517-0.348-0.855v-7.326c0-2.174-0.98-3.262-2.941-3.262c-0.892,0-1.688,0.232-2.393,0.695
	c-0.704,0.464-1.368,1.087-1.992,1.871v8.021c0,0.339-0.12,0.624-0.36,0.855c-0.241,0.231-0.531,0.348-0.869,0.348
	C299.944,97.148,299.659,97.032,299.428,96.801z"/>
<path fill="#3F51B5" stroke="#3F51B5" stroke-miterlimit="10" d="M315.844,93.753v-8.288h-1.898c-0.143,0-0.263-0.049-0.36-0.147
	c-0.099-0.098-0.147-0.218-0.147-0.361c0-0.178,0.08-0.329,0.241-0.454l3.636-3.556c0.16-0.161,0.312-0.241,0.454-0.241
	s0.264,0.054,0.361,0.161c0.098,0.106,0.147,0.231,0.147,0.374v2.139h3.021c0.304,0,0.553,0.099,0.749,0.294
	c0.196,0.196,0.294,0.446,0.294,0.749c0,0.285-0.098,0.53-0.294,0.735s-0.445,0.308-0.749,0.308h-3.021v8.074
	c0,0.695,0.164,1.136,0.494,1.323s0.744,0.281,1.243,0.281c0.356,0,0.713-0.054,1.069-0.161c0.071-0.018,0.147-0.035,0.228-0.053
	s0.183-0.027,0.308-0.027c0.249,0,0.472,0.094,0.668,0.281c0.196,0.187,0.295,0.414,0.295,0.682c0,0.41-0.206,0.722-0.615,0.936
	c-0.695,0.321-1.436,0.481-2.22,0.481C317.145,97.282,315.844,96.105,315.844,93.753z"/>
</svg>
